<svg id="Layer_1" data-name="Layer 1" xmlns="http://www.w3.org/2000/svg" viewBox="0 0 57.64 51.98"><defs><style>.cls-1{fill:#bebec3;}.cls-2{fill:#e9145a;}</style></defs><title>flecha</title><polygon class="cls-1" points="27.76 7.96 45.79 25.99 27.76 44.02 31.66 47.91 53.58 25.99 31.66 4.06 27.76 7.96"/><polygon class="cls-2" points="7.96 4.06 4.06 7.96 22.09 25.99 4.06 44.02 7.96 47.91 29.88 25.99 7.96 4.06"/><path d="M23.7,8l18,18-18,18,8,8,26-26-26-26Zm8,40L27.76,44l18-18-18-18,3.9-3.9L53.58,26Z"/><path d="M8,0,0,8,18,26,0,44l8,8L34,26ZM4.06,44l18-18L4.06,8,8,4.06,29.88,26,8,47.92Z"/></svg>