<svg xmlns="http://www.w3.org/2000/svg" viewBox="0 0 179.53 387.95"><defs><style>.cls-1,.cls-5{fill:#fff;}.cls-2{fill:#e9145a;}.cls-3{fill:#bebec3;}.cls-4{fill:none;}.cls-5{opacity:0.21;}.cls-6{fill:#a41e5b;}</style></defs><title>fondos</title><g id="OBJECTS"><rect class="cls-1" width="179.53" height="387.95"/><polygon class="cls-2" points="60.12 43.62 58.82 44.93 64.85 50.96 58.82 56.99 60.12 58.29 67.45 50.96 60.12 43.62"/><polygon class="cls-3" points="68.04 43.62 66.74 44.93 72.77 50.96 66.74 56.99 68.04 58.29 75.38 50.96 68.04 43.62"/><rect class="cls-4" x="110.46" y="72.8" width="1.44" height="0.84"/><rect class="cls-4" x="67.63" y="72.8" width="1.44" height="2.49"/><rect class="cls-4" x="89.04" y="72.8" width="1.44" height="5.52"/><path class="cls-5" d="M60.36,72.8a8,8,0,0,0,8,8h8V74.2H70.57v2.59H66.13v-4Z"/><path class="cls-5" d="M89.76,81.79a9,9,0,0,0,9-9H92v7H87.54v-7H80.78A9,9,0,0,0,89.76,81.79Z"/><path class="cls-5" d="M113.4,75.14H109V72.8h-5.77a8,8,0,0,0,16,0H113.4v2.34Z"/><path class="cls-2" d="M111.9,63.31V73.64h-1.44V63.31h-8.77V72.8h0a9.49,9.49,0,0,0,19,0h0V63.31Z"/><path class="cls-2" d="M58.86,72.8h0a9.49,9.49,0,0,0,9.49,9.48h9.48V72.7H69.07v2.59H67.63v-4h10.2v-8H68.35A9.5,9.5,0,0,0,58.86,72.8Z"/><path class="cls-2" d="M89.76,62.31A10.49,10.49,0,0,0,79.28,72.8h0a10.49,10.49,0,1,0,21,0h0A10.49,10.49,0,0,0,89.76,62.31ZM89,72.8V67.27h1.44v11H89Z"/><path d="M89,78.32h1.44v-11H89ZM65.38,57,68,59.65,76.73,51,68,42.27l-2.66,2.66,6,6Zm1.36-12.06L68,43.62,75.38,51,68,58.29,66.74,57l6-6Zm55.37,6.45V40.45H77.83V52.1h6.11V62.31h.14a12,12,0,0,0-4.8,4.81V61.87H68.35a10.93,10.93,0,1,0,0,21.86H79.28V78.48A11.92,11.92,0,0,0,101,76.78a10.92,10.92,0,0,0,21.1-4V61.87h-7.86A11,11,0,0,0,122.11,51.38ZM77.83,71.26H67.63v4h1.44V72.7h8.76v9.58H68.35a9.49,9.49,0,1,1,0-19h9.48Zm1.45-20.6V41.89h21v8.77h-6.1V60.87H85.38V50.66ZM89.76,83.29A10.49,10.49,0,1,1,100.25,72.8,10.5,10.5,0,0,1,89.76,83.29Zm10.49-21.42v5.25a12,12,0,0,0-4.81-4.81h.15V52.1h4.69a11,11,0,0,0,7.84,9.77Zm20.42,1.44V72.8a9.49,9.49,0,0,1-19,0V63.31h8.77V73.64h1.44V63.31Zm-9.49-2.44a9.5,9.5,0,0,1-9.49-9.49V41.89h8.77V52.22h1.44V41.89h8.77v9.49A9.5,9.5,0,0,1,111.18,60.87ZM60.12,59.65,68.81,51l-8.69-8.69-2.66,2.66,6,6-6,6Zm-1.3-14.72,1.3-1.31L67.45,51l-7.33,7.33L58.82,57l6-6Z"/><rect class="cls-4" x="110.46" y="51.38" width="1.44" height="0.84"/><path class="cls-1" d="M111.9,41.89V52.22h-1.44V41.89h-8.77v9.49a9.49,9.49,0,1,0,19,0V41.89Z"/><path class="cls-1" d="M79.28,50.66h6.1V60.87h8.77V50.66h6.1V41.89h-21Z"/><polygon class="cls-3" points="79.84 45.64 82 42.49 79.84 42.49 79.84 45.64"/><polygon class="cls-3" points="84.09 42.49 80.46 47.78 83.49 47.78 87.12 42.49 84.09 42.49"/><polygon class="cls-3" points="92.24 42.49 89.21 42.49 85.58 47.78 88.61 47.78 92.24 42.49"/><polygon class="cls-3" points="97.36 42.49 94.33 42.49 90.7 47.78 93.73 47.78 97.36 42.49"/><polygon class="cls-3" points="102.25 42.49 102.25 42.83 102.49 42.49 102.25 42.49"/><polygon class="cls-3" points="99.61 42.49 99.45 42.49 95.83 47.78 98.86 47.78 99.61 46.68 99.61 42.49"/><polygon class="cls-3" points="103.98 47.78 107.61 42.49 104.58 42.49 102.25 45.88 102.25 47.78 103.98 47.78"/><polygon class="cls-3" points="109.82 46.73 109.82 42.49 109.7 42.49 106.07 47.78 109.1 47.78 109.82 46.73"/><polygon class="cls-3" points="112.46 42.88 112.73 42.49 112.46 42.49 112.46 42.88"/><polygon class="cls-3" points="117.85 42.49 114.82 42.49 112.46 45.93 112.46 47.78 114.22 47.78 117.85 42.49"/><polygon class="cls-3" points="120.03 46.78 120.03 42.49 119.94 42.49 116.31 47.78 119.35 47.78 120.03 46.78"/><path class="cls-6" d="M60.36,72.8a8,8,0,0,0,8,8h8V74.2H70.57v2.59H66.13v-4Z"/><path class="cls-6" d="M89.76,81.79a9,9,0,0,0,9-9H92v7H87.54v-7H80.78A9,9,0,0,0,89.76,81.79Z"/><path class="cls-6" d="M113.4,75.14H109V72.8h-5.77a8,8,0,0,0,16,0H113.4v2.34Z"/></g></svg>