<svg xmlns="http://www.w3.org/2000/svg" viewBox="0 0 179.53 387.95"><defs><style>.cls-1,.cls-5{fill:#fff;}.cls-2{fill:#e9145a;}.cls-3{fill:#bebec3;}.cls-4{fill:none;}.cls-5{opacity:0.21;}.cls-6{fill:#a41e5b;}</style></defs><title>fondos</title><g id="OBJECTS"><rect class="cls-1" width="179.53" height="387.95"/><polygon class="cls-2" points="30.47 91.09 27.87 93.69 39.93 105.75 27.87 117.81 30.47 120.41 45.14 105.75 30.47 91.09"/><polygon class="cls-3" points="46.32 91.09 43.72 93.69 55.78 105.75 43.72 117.81 46.32 120.41 60.99 105.75 46.32 91.09"/><rect class="cls-4" x="131.16" y="149.43" width="2.88" height="1.68"/><rect class="cls-4" x="45.49" y="149.43" width="2.88" height="4.99"/><rect class="cls-4" x="88.32" y="149.43" width="2.88" height="11.05"/><path class="cls-5" d="M31,149.43a16,16,0,0,0,16,16h16V152.25H51.37v5.17H42.49v-8Z"/><path class="cls-5" d="M89.76,167.41a18,18,0,0,0,18-18H94.21v14H85.32v-14H71.79A18,18,0,0,0,89.76,167.41Z"/><path class="cls-5" d="M137,154.11h-8.88v-4.68H116.62a16,16,0,0,0,32,0H137v4.68Z"/><path class="cls-2" d="M134,130.46v20.65h-2.88V130.46H113.62v19h0a19,19,0,0,0,38,0h0v-19Z"/><path class="cls-2" d="M28,149.43h0a19,19,0,0,0,19,19h19V149.25H48.37v5.17H45.49v-8.06H65.9v-15.9h-19A19,19,0,0,0,28,149.43Z"/><path class="cls-2" d="M89.76,128.45a21,21,0,0,0-21,21h0a21,21,0,1,0,41.95,0h0A21,21,0,0,0,89.76,128.45Zm-1.44,21V138.38h2.89v22.1H88.32Z"/><path d="M88.32,160.48h2.89v-22.1H88.32ZM41,117.81l5.32,5.32L63.7,105.75,46.32,88.37,41,93.69l12.06,12.06Zm2.72-24.12,2.6-2.6L61,105.75,46.32,120.41l-2.6-2.6,12.06-12.06Zm110.74,12.9V84.74H65.9V108H78.11v20.41h.29a24,24,0,0,0-9.61,9.62v-10.5H46.93a21.86,21.86,0,0,0,0,43.72H68.79v-10.5a23.85,23.85,0,0,0,43.46-3.39,21.86,21.86,0,0,0,42.21-8V127.57H138.73A21.88,21.88,0,0,0,154.46,106.59ZM65.9,146.36H45.49v8.06h2.88v-5.17H65.9v19.16h-19a19,19,0,1,1,0-37.95h19Zm2.89-41.21V87.62h41.95v17.53H98.53v20.42H81V105.15Zm21,65.26a21,21,0,1,1,21-21A21,21,0,0,1,89.76,170.41Zm21-42.84v10.5a24.07,24.07,0,0,0-9.62-9.62h.29V108h9.38a21.89,21.89,0,0,0,15.68,19.53Zm40.84,2.89v19a19,19,0,0,1-38,0v-19h17.54v20.65H134V130.46Zm-19-4.89a19,19,0,0,1-19-19v-19h17.54v20.66H134V87.62h17.54v19A19,19,0,0,1,132.6,125.57ZM30.47,123.13l17.38-17.38L30.47,88.37l-5.32,5.32,12.06,12.06L25.15,117.81Zm-2.6-29.44,2.6-2.6,14.67,14.66L30.47,120.41l-2.6-2.6,12.06-12.06Z"/><rect class="cls-4" x="131.16" y="106.6" width="2.88" height="1.68"/><path class="cls-1" d="M134,87.62v20.66h-2.88V87.62H113.62v19a19,19,0,0,0,38,0v-19Z"/><path class="cls-1" d="M68.79,105.15H81v20.42H98.53V105.15h12.21V87.62H68.79Z"/><polygon class="cls-3" points="69.91 95.12 74.23 88.82 69.91 88.82 69.91 95.12"/><polygon class="cls-3" points="78.41 88.82 71.15 99.4 77.22 99.4 84.47 88.82 78.41 88.82"/><polygon class="cls-3" points="94.72 88.82 88.65 88.82 81.4 99.4 87.46 99.4 94.72 88.82"/><polygon class="cls-3" points="104.96 88.82 98.9 88.82 91.64 99.4 97.71 99.4 104.96 88.82"/><polygon class="cls-3" points="114.75 88.82 114.75 89.49 115.21 88.82 114.75 88.82"/><polygon class="cls-3" points="109.46 88.82 109.14 88.82 101.89 99.4 107.95 99.4 109.46 97.19 109.46 88.82"/><polygon class="cls-3" points="118.2 99.4 125.45 88.82 119.39 88.82 114.75 95.59 114.75 99.4 118.2 99.4"/><polygon class="cls-3" points="129.88 97.3 129.88 88.82 129.63 88.82 122.38 99.4 128.44 99.4 129.88 97.3"/><polygon class="cls-3" points="135.16 89.6 135.7 88.82 135.16 88.82 135.16 89.6"/><polygon class="cls-3" points="145.94 88.82 139.88 88.82 135.16 95.69 135.16 99.4 138.69 99.4 145.94 88.82"/><polygon class="cls-3" points="150.3 97.41 150.3 88.82 150.12 88.82 142.87 99.4 148.93 99.4 150.3 97.41"/><path class="cls-6" d="M31,149.43a16,16,0,0,0,16,16h16V152.25H51.37v5.17H42.49v-8Z"/><path class="cls-6" d="M89.76,167.41a18,18,0,0,0,18-18H94.21v14H85.32v-14H71.79A18,18,0,0,0,89.76,167.41Z"/><path class="cls-6" d="M137,154.11h-8.88v-4.68H116.62a16,16,0,0,0,32,0H137v4.68Z"/></g></svg>