<svg id="Layer_1" data-name="Layer 1" xmlns="http://www.w3.org/2000/svg" viewBox="0 0 219.36 151.9"><defs><style>.cls-1{fill:#fff;}.cls-2{fill:#ec145a;}</style></defs><title>- LOGO tugou</title><path class="cls-1" d="M214.54,0H67.46V30.48L44.23,7.25l-3.4-3.41L37.42,7.25,28.87,15.8l-.77.77L18.77,7.25l-3.4-3.41L12,7.25,3.41,15.8,0,19.2l3.41,3.41,16,16-16,16L0,58l3.41,3.41L12,69.91l3.41,3.4,3.4-3.4,9.33-9.33.77.78,7.8,7.8a39.92,39.92,0,0,0,5.13,79.52H81.73v-7.89A43.11,43.11,0,0,0,147,132a39.94,39.94,0,0,0,72.41-23.25V68.82H206.93a40.06,40.06,0,0,0,12.43-28.89V0ZM87.08,72.59a43.72,43.72,0,0,0-5.35,4.12V68.82H45.33L67.46,46.68v.39H87.08Zm57.23-3.77h-4.82V76.7a43.77,43.77,0,0,0-5.34-4.11V47.07h6A40.13,40.13,0,0,0,151.9,68.82Z"/><path class="cls-2" d="M40.4,15,36.22,19.2,55.59,38.58,36.22,58l4.18,4.18L64,38.58ZM14.94,15,10.76,19.2,30.13,38.58,10.76,58l4.18,4.18L38.5,38.58Z"/><path class="cls-1" d="M76.49,37.62H96.11v32.8h28.16V37.62h19.62V9.45H76.49ZM181.32,9.45V42.64h-4.63V9.45H148.52V39.93a30.49,30.49,0,1,0,61,0V9.45Z"/><path class="cls-2" d="M10.89,108.75a30.52,30.52,0,0,0,30.48,30.48H71.86V108.45H43.69v8.31H39.06V103.82h32.8V78.26H41.37A30.53,30.53,0,0,0,10.89,108.75Zm99.3-33.7a33.7,33.7,0,1,0,33.7,33.7A33.74,33.74,0,0,0,110.19,75.05Zm2.31,51.45h-4.63V91h4.63Zm68.82-48.24v33.19h-4.63V78.26H148.52v30.49a30.49,30.49,0,0,0,61,0V78.26Z"/><path d="M107.87,126.5h4.63V91h-4.63ZM31.85,58,40.4,66.5,68.33,38.58,40.4,10.65,31.85,19.2,51.23,38.58ZM36.22,19.2,40.4,15,64,38.58,40.4,62.13,36.22,58,55.59,38.58Zm177.9,20.73V4.82H71.86V42.25H91.47v32.8h.47A38.55,38.55,0,0,0,76.49,90.5V73.63H41.37a35.12,35.12,0,0,0,0,70.23H76.49V127a38.32,38.32,0,0,0,69.82-5.45,35.11,35.11,0,0,0,67.81-12.8V73.63H188.85A35.16,35.16,0,0,0,214.12,39.93ZM71.86,103.82H39.06v12.94h4.63v-8.31H71.86v30.78H41.37a30.49,30.49,0,0,1,0-61H71.86Zm4.63-66.2V9.45h67.4V37.62H124.27v32.8H96.11V37.62Zm33.7,104.83a33.7,33.7,0,1,1,33.7-33.7A33.74,33.74,0,0,1,110.19,142.45Zm33.7-68.82V90.5a38.61,38.61,0,0,0-15.45-15.45h.46V42.25H144a35.19,35.19,0,0,0,25.19,31.38Zm65.6,4.63v30.49a30.49,30.49,0,0,1-61,0V78.26h28.17v33.19h4.63V78.26ZM179,70.42a30.52,30.52,0,0,1-30.48-30.49V9.45h28.17V42.64h4.63V9.45h28.17V39.93A30.53,30.53,0,0,1,179,70.42ZM14.94,66.5,42.86,38.58,14.94,10.65,6.39,19.2,25.77,38.58,6.39,58ZM10.76,19.2,14.94,15,38.5,38.58,14.94,62.13,10.76,58,30.13,38.58Z"/></svg>