<svg id="Layer_1" data-name="Layer 1" xmlns="http://www.w3.org/2000/svg" viewBox="0 0 207.86 142.26"><defs><style>.cls-1{fill:#ec145a;}.cls-2{fill:#fff;}</style></defs><title>- LOGO tugou</title><path class="cls-1" d="M34.14,10.2,30,14.38,49.33,33.76,30,53.13l4.18,4.18L57.7,33.76Zm-25.46,0L4.5,14.38,23.87,33.76,4.5,53.13l4.18,4.18L32.24,33.76Z"/><path class="cls-2" d="M70.23,32.8H89.84V65.6H118V32.8h19.62V4.63H70.23ZM175.06,4.63V37.82h-4.63V4.63H142.26V35.11a30.49,30.49,0,1,0,61,0V4.63Z"/><path class="cls-1" d="M4.63,103.93a30.52,30.52,0,0,0,30.48,30.48H65.6V103.63H37.43v8.31H32.8V99H65.6V73.45H35.11A30.52,30.52,0,0,0,4.63,103.93Zm99.3-33.7a33.7,33.7,0,1,0,33.7,33.7A33.74,33.74,0,0,0,103.93,70.23Zm2.31,51.45h-4.63V86.18h4.63Zm68.82-48.23v33.18h-4.63V73.45H142.26v30.48a30.49,30.49,0,0,0,61,0V73.45Z"/><path d="M101.61,121.68h4.63V86.18h-4.63Zm-76-68.55,8.55,8.55L62.07,33.76,34.14,5.83l-8.55,8.55L45,33.76ZM30,14.38l4.18-4.18L57.7,33.76,34.14,57.31,30,53.13,49.33,33.76Zm177.9,20.73V0H65.6V37.43H85.21v32.8h.47A38.61,38.61,0,0,0,70.23,85.68V68.81H35.11a35.12,35.12,0,0,0,0,70.23H70.23V122.18a38.32,38.32,0,0,0,69.82-5.45,35.11,35.11,0,0,0,67.81-12.8V68.81H182.59A35.16,35.16,0,0,0,207.86,35.11ZM65.6,99H32.8v12.94h4.63v-8.31H65.6v30.78H35.11a30.48,30.48,0,0,1,0-61H65.6Zm4.63-66.2V4.63h67.4V32.8H118V65.6H89.84V32.8Zm33.7,104.83a33.7,33.7,0,1,1,33.7-33.7A33.74,33.74,0,0,1,103.93,137.63Zm33.7-68.82V85.68a38.61,38.61,0,0,0-15.45-15.45h.46V37.43h15.07A35.18,35.18,0,0,0,162.9,68.81Zm65.6,4.64v30.48a30.49,30.49,0,0,1-61,0V73.45h28.17v33.18h4.63V73.45ZM172.74,65.6a30.52,30.52,0,0,1-30.48-30.49V4.63h28.17V37.82h4.63V4.63h28.17V35.11A30.53,30.53,0,0,1,172.74,65.6ZM8.68,61.68,36.6,33.76,8.68,5.83.13,14.38,19.51,33.76.13,53.13ZM4.5,14.38,8.68,10.2,32.24,33.76,8.68,57.31,4.5,53.13,23.87,33.76Z"/></svg>